<svg viewBox="0 0 32 32" fill="none" xmlns="http://www.w3.org/2000/svg" className="w-9 h-9">
<g id="Button">
<path d="M0 16C0 7.16344 7.16344 0 16 0C24.8366 0 32 7.16344 32 16C32 24.8366 24.8366 32 16 32C7.16344 32 0 24.8366 0 16Z" fill="white"/>
<g id="Outlined/more">
<path id="Vector" d="M15.9998 14.6667C15.2665 14.6667 14.6665 15.2667 14.6665 16C14.6665 16.7334 15.2665 17.3334 15.9998 17.3334C16.7332 17.3334 17.3332 16.7334 17.3332 16C17.3332 15.2667 16.7332 14.6667 15.9998 14.6667ZM15.9998 10.6667C15.2665 10.6667 14.6665 11.2667 14.6665 12C14.6665 12.7334 15.2665 13.3334 15.9998 13.3334C16.7332 13.3334 17.3332 12.7334 17.3332 12C17.3332 11.2667 16.7332 10.6667 15.9998 10.6667ZM15.9998 18.6667C15.2665 18.6667 14.6665 19.2667 14.6665 20C14.6665 20.7334 15.2665 21.3334 15.9998 21.3334C16.7332 21.3334 17.3332 20.7334 17.3332 20C17.3332 19.2667 16.7332 18.6667 15.9998 18.6667Z" fill="#5B6366"/>
</g>
</g>
</svg>
