<svg width="24" height="24" viewBox="0 0 24 24" fill="none" xmlns="http://www.w3.org/2000/svg">
<path d="M12 24C18.6274 24 24 18.6274 24 12C24 5.37258 18.6274 0 12 0C5.37258 0 0 5.37258 0 12C0 18.6274 5.37258 24 12 24Z" fill="#FFCC4D"/>
<path d="M12.0001 13.9999C9.58475 13.9999 7.98208 13.7186 6.00008 13.3332C5.54741 13.2459 4.66675 13.3332 4.66675 14.6666C4.66675 17.3332 7.73008 20.6666 12.0001 20.6666C16.2694 20.6666 19.3334 17.3332 19.3334 14.6666C19.3334 13.3332 18.4527 13.2452 18.0001 13.3332C16.0181 13.7186 14.4154 13.9999 12.0001 13.9999Z" fill="#664500"/>
<path d="M6 14.6667C6 14.6667 8 15.3334 12 15.3334C16 15.3334 18 14.6667 18 14.6667C18 14.6667 16.6667 17.3334 12 17.3334C7.33333 17.3334 6 14.6667 6 14.6667Z" fill="white"/>
<path d="M7.99992 11.3334C8.92039 11.3334 9.66658 10.2887 9.66658 9.00008C9.66658 7.71142 8.92039 6.66675 7.99992 6.66675C7.07944 6.66675 6.33325 7.71142 6.33325 9.00008C6.33325 10.2887 7.07944 11.3334 7.99992 11.3334Z" fill="#664500"/>
<path d="M16.0002 11.3334C16.9206 11.3334 17.6668 10.2887 17.6668 9.00008C17.6668 7.71142 16.9206 6.66675 16.0002 6.66675C15.0797 6.66675 14.3335 7.71142 14.3335 9.00008C14.3335 10.2887 15.0797 11.3334 16.0002 11.3334Z" fill="#664500"/>
</svg>
