<svg width="16" height="16" viewBox="0 0 16 16" fill="none" xmlns="http://www.w3.org/2000/svg">
<path d="M2.00004 8.66675H2.66671V10.0001V13.3334C2.66671 14.0688 3.26471 14.6668 4.00004 14.6668H6.00004H10H12C12.7354 14.6668 13.3334 14.0688 13.3334 13.3334V10.0001V8.66675H14C14.2694 8.66675 14.5134 8.50409 14.616 8.25542C14.7194 8.00609 14.662 7.71942 14.4714 7.52875L8.47138 1.52875C8.21071 1.26809 7.78938 1.26809 7.52871 1.52875L1.52871 7.52875C1.33804 7.71942 1.28071 8.00609 1.38404 8.25542C1.48671 8.50409 1.73071 8.66675 2.00004 8.66675ZM6.66671 13.3334V10.0001H9.33338V13.3334H6.66671ZM8.00004 2.94275L12 6.94275V10.0001L12.0007 13.3334H10.6667V10.0001C10.6667 9.26475 10.0687 8.66675 9.33338 8.66675H6.66671C5.93138 8.66675 5.33338 9.26475 5.33338 10.0001V13.3334H4.00004V10.0001V8.00009V6.94275L8.00004 2.94275Z" fill="#5B6366"/>
</svg>
