<svg width="24" height="24" viewBox="0 0 24 24" fill="none" xmlns="http://www.w3.org/2000/svg">
<path d="M10.385 21.788C10.563 21.927 10.779 22 11 22C11.081 22 11.162 21.99 11.242 21.97L19.242 19.97C19.688 19.859 20 19.459 20 19V4.99997C20 4.54097 19.687 4.14097 19.242 4.02997L11.242 2.02997C10.944 1.95597 10.628 2.02297 10.385 2.21197C10.142 2.40097 10 2.69197 10 2.99997V3.99997H6C5.447 3.99997 5 4.44797 5 4.99997V19C5 19.552 5.447 20 6 20H10V21C10 21.308 10.142 21.599 10.385 21.788ZM12 4.28097L18 5.78097V18.219L12 19.719V19V4.99997V4.28097ZM7 18V5.99997H10V18H7Z" fill="#5B6366"/>
<path d="M14.242 13.1589C14.688 13.0469 15 12.6469 15 12.1879V11.8109C15 11.3519 14.687 10.9519 14.242 10.8409C13.611 10.6839 13 11.1609 13 11.8119V12.1889C13 12.8389 13.611 13.3159 14.242 13.1589Z" fill="#5B6366"/>
</svg>
