<svg width="24" height="24" viewBox="0 0 24 24" fill="none" xmlns="http://www.w3.org/2000/svg">
<path d="M2.99995 13H3.99995V15V20C3.99995 21.103 4.89694 22 5.99995 22H8.99995H14.9999H17.9999C19.1029 22 19.9999 21.103 19.9999 20V15V13H20.9999C21.4039 13 21.7699 12.756 21.9239 12.383C22.0789 12.009 21.9929 11.579 21.7069 11.293L12.7069 2.29301C12.3159 1.90201 11.6839 1.90201 11.2929 2.29301L2.29295 11.293C2.00695 11.579 1.92095 12.009 2.07595 12.383C2.22995 12.756 2.59595 13 2.99995 13ZM9.99994 20V15H13.9999V20H9.99994ZM11.9999 4.41401L17.9999 10.414V15L18.0009 20H15.9999V15C15.9999 13.897 15.1029 13 13.9999 13H9.99994C8.89694 13 7.99995 13.897 7.99995 15V20H5.99995V15V12V10.414L11.9999 4.41401Z" fill="#5B6366"/>
</svg>
