<svg width="24" height="24" viewBox="0 0 24 24" fill="none" xmlns="http://www.w3.org/2000/svg">
<path d="M0 4C0 1.79086 1.79086 0 4 0H20C22.2091 0 24 1.79086 24 4V20C24 22.2091 22.2091 24 20 24H4C1.79086 24 0 22.2091 0 20V4Z" fill="#F2F9FF"/>
<path d="M15.7324 15.6943C15.3952 16.1774 14.9235 16.5397 14.3174 16.7812C13.7158 17.0182 13.014 17.1367 12.2119 17.1367C11.4007 17.1367 10.6807 16.9476 10.0518 16.5693C9.42285 16.1865 8.93522 15.6442 8.58887 14.9424C8.24707 14.2406 8.07161 13.4271 8.0625 12.502V11.6338C8.0625 10.1344 8.41113 8.97233 9.1084 8.14746C9.81022 7.32259 10.7946 6.91016 12.0615 6.91016C13.1006 6.91016 13.9368 7.17676 14.5703 7.70996C15.2038 8.23861 15.5911 8.99056 15.7324 9.96582H14.4199C14.1738 8.64876 13.39 7.99023 12.0684 7.99023C11.1888 7.99023 10.5212 8.30013 10.0654 8.91992C9.61426 9.53516 9.38639 10.4284 9.38184 11.5996V12.4131C9.38184 13.5296 9.63704 14.4183 10.1475 15.0791C10.6579 15.7354 11.3483 16.0635 12.2188 16.0635C12.7109 16.0635 13.1416 16.0088 13.5107 15.8994C13.8799 15.79 14.1852 15.6055 14.4268 15.3457V13.1104H12.123V12.0439H15.7324V15.6943Z" fill="#8D9A9E"/>
</svg>
