<svg width="24" height="24" viewBox="0 0 24 24" fill="none" xmlns="http://www.w3.org/2000/svg">
<path d="M0 4C0 1.79086 1.79086 0 4 0H20C22.2091 0 24 1.79086 24 4V20C24 22.2091 22.2091 24 20 24H4C1.79086 24 0 22.2091 0 20V4Z" fill="#F2F9FF"/>
<path d="M13.4629 7.04688H14.7822V14.0947C14.7822 15.0472 14.4951 15.7923 13.9209 16.3301C13.3512 16.8678 12.5902 17.1367 11.6377 17.1367C10.6488 17.1367 9.87858 16.8838 9.32715 16.3779C8.77572 15.8721 8.5 15.1634 8.5 14.252H9.8125C9.8125 14.8216 9.96745 15.266 10.2773 15.585C10.5918 15.904 11.0452 16.0635 11.6377 16.0635C12.18 16.0635 12.6175 15.8926 12.9502 15.5508C13.2874 15.209 13.4583 14.7305 13.4629 14.1152V7.04688Z" fill="#8D9A9E"/>
</svg>
