<svg width="24" height="24" viewBox="0 0 24 24" fill="none" xmlns="http://www.w3.org/2000/svg">
<path d="M12 2C6.486 2 2 6.486 2 12C2 17.514 6.486 22 12 22C17.514 22 22 17.514 22 12C22 6.486 17.514 2 12 2ZM12 20C7.589 20 4 16.411 4 12C4 7.589 7.589 4 12 4C16.411 4 20 7.589 20 12C20 16.411 16.411 20 12 20Z" fill="#5B6366"/>
<path d="M14.8289 14.8281C14.6439 15.0121 14.4449 15.1771 14.2369 15.3171C14.0199 15.4631 13.7919 15.5871 13.5569 15.6861C13.3129 15.7891 13.0609 15.8671 12.8079 15.9191C12.2769 16.0271 11.7209 16.0271 11.1919 15.9191C10.9379 15.8671 10.6859 15.7891 10.4419 15.6861C10.2079 15.5871 9.97893 15.4631 9.76293 15.3171C9.55393 15.1761 9.35493 15.0121 9.16993 14.8281C8.98893 14.6471 8.82393 14.4481 8.68193 14.2361L7.02393 15.3551C7.23893 15.6731 7.48593 15.9721 7.75793 16.2441C8.03093 16.5171 8.32993 16.7641 8.64493 16.9751C8.96793 17.1931 9.31093 17.3791 9.66493 17.5281C10.0299 17.6821 10.4089 17.8001 10.7929 17.8781C11.1889 17.9591 11.5959 18.0001 11.9999 18.0001C12.4039 18.0001 12.8109 17.9591 13.2079 17.8781C13.5909 17.8001 13.9699 17.6821 14.3349 17.5281C14.6889 17.3791 15.0309 17.1931 15.3559 16.9751C15.6689 16.7631 15.9679 16.5171 16.2419 16.2441C16.5139 15.9731 16.7619 15.6731 16.9759 15.3551L15.3179 14.2361C15.1749 14.4481 15.0099 14.6471 14.8289 14.8281Z" fill="#5B6366"/>
<path d="M8.5 12C9.32843 12 10 11.3284 10 10.5C10 9.67157 9.32843 9 8.5 9C7.67157 9 7 9.67157 7 10.5C7 11.3284 7.67157 12 8.5 12Z" fill="#5B6366"/>
<path d="M15.493 11.986C16.3176 11.986 16.986 11.3176 16.986 10.493C16.986 9.66844 16.3176 9 15.493 9C14.6684 9 14 9.66844 14 10.493C14 11.3176 14.6684 11.986 15.493 11.986Z" fill="#5B6366"/>
</svg>
