<svg width="194" height="56" viewBox="0 0 194 56" fill="none" xmlns="http://www.w3.org/2000/svg">
<path d="M0 28C0 12.536 12.536 0 28 0H166C181.464 0 194 12.536 194 28C194 43.464 181.464 56 166 56H28C12.536 56 0 43.464 0 28Z" fill="#7048E8"/>
<path d="M33.2695 35V20.7812H38.25C39.9753 20.7812 41.2839 21.1133 42.1758 21.7773C43.0677 22.4349 43.5137 23.4017 43.5137 24.6777C43.5137 25.3743 43.3346 25.9896 42.9766 26.5234C42.6185 27.0508 42.1204 27.4382 41.4824 27.6855C42.2116 27.8678 42.7845 28.2357 43.2012 28.7891C43.6243 29.3424 43.8359 30.0195 43.8359 30.8203C43.8359 32.1875 43.3997 33.2227 42.5273 33.9258C41.6549 34.6289 40.4115 34.987 38.7969 35H33.2695ZM36.1992 28.8086V32.6465H38.709C39.3991 32.6465 39.9362 32.4837 40.3203 32.1582C40.7109 31.8262 40.9062 31.3704 40.9062 30.791C40.9062 29.4889 40.2324 28.8281 38.8848 28.8086H36.1992ZM36.1992 26.7383H38.3672C39.8451 26.7122 40.584 26.123 40.584 24.9707C40.584 24.3262 40.3952 23.8639 40.0176 23.584C39.6465 23.2975 39.0573 23.1543 38.25 23.1543H36.1992V26.7383ZM52.1855 33.9258C51.4889 34.7721 50.5254 35.1953 49.2949 35.1953C48.1621 35.1953 47.2962 34.8698 46.6973 34.2188C46.1048 33.5677 45.8021 32.6139 45.7891 31.3574V24.4336H48.6113V31.2598C48.6113 32.36 49.1126 32.9102 50.1152 32.9102C51.0723 32.9102 51.7298 32.5781 52.0879 31.9141V24.4336H54.9199V35H52.2637L52.1855 33.9258ZM60.4277 21.8359V24.4336H62.2344V26.5039H60.4277V31.7773C60.4277 32.168 60.5026 32.4479 60.6523 32.6172C60.8021 32.7865 61.0885 32.8711 61.5117 32.8711C61.8242 32.8711 62.1009 32.8483 62.3418 32.8027V34.9414C61.7884 35.1107 61.2188 35.1953 60.6328 35.1953C58.6536 35.1953 57.6445 34.196 57.6055 32.1973V26.5039H56.0625V24.4336H57.6055V21.8359H60.4277ZM67.1855 21.8359V24.4336H68.9922V26.5039H67.1855V31.7773C67.1855 32.168 67.2604 32.4479 67.4102 32.6172C67.5599 32.7865 67.8464 32.8711 68.2695 32.8711C68.582 32.8711 68.8587 32.8483 69.0996 32.8027V34.9414C68.5462 35.1107 67.9766 35.1953 67.3906 35.1953C65.4115 35.1953 64.4023 34.196 64.3633 32.1973V26.5039H62.8203V24.4336H64.3633V21.8359H67.1855ZM69.832 29.6191C69.832 28.571 70.0339 27.6367 70.4375 26.8164C70.8411 25.9961 71.4206 25.3613 72.1758 24.9121C72.9375 24.4629 73.8197 24.2383 74.8223 24.2383C76.248 24.2383 77.4102 24.6745 78.3086 25.5469C79.2135 26.4193 79.7181 27.6042 79.8223 29.1016L79.8418 29.8242C79.8418 31.4453 79.3893 32.7474 78.4844 33.7305C77.5794 34.707 76.3652 35.1953 74.8418 35.1953C73.3184 35.1953 72.1009 34.707 71.1895 33.7305C70.2845 32.7539 69.832 31.4258 69.832 29.7461V29.6191ZM72.6543 29.8242C72.6543 30.8268 72.8431 31.5951 73.2207 32.1289C73.5983 32.6562 74.1387 32.9199 74.8418 32.9199C75.5254 32.9199 76.0592 32.6595 76.4434 32.1387C76.8275 31.6113 77.0195 30.7715 77.0195 29.6191C77.0195 28.6361 76.8275 27.8743 76.4434 27.334C76.0592 26.7936 75.5189 26.5234 74.8223 26.5234C74.1322 26.5234 73.5983 26.7936 73.2207 27.334C72.8431 27.8678 72.6543 28.6979 72.6543 29.8242ZM84.1777 24.4336L84.2656 25.6543C85.0208 24.7103 86.0332 24.2383 87.3027 24.2383C88.4225 24.2383 89.2559 24.5671 89.8027 25.2246C90.3496 25.8822 90.6296 26.8652 90.6426 28.1738V35H87.8203V28.2422C87.8203 27.6432 87.6901 27.2103 87.4297 26.9434C87.1693 26.6699 86.7363 26.5332 86.1309 26.5332C85.3366 26.5332 84.7409 26.8717 84.3438 27.5488V35H81.5215V24.4336H84.1777ZM108.074 23.1543H103.719V35H100.789V23.1543H96.4922V20.7812H108.074V23.1543ZM113.553 35.1953C112.003 35.1953 110.74 34.7201 109.764 33.7695C108.794 32.819 108.309 31.5527 108.309 29.9707V29.6973C108.309 28.6361 108.514 27.6888 108.924 26.8555C109.334 26.0156 109.913 25.3711 110.662 24.9219C111.417 24.4661 112.277 24.2383 113.24 24.2383C114.686 24.2383 115.822 24.694 116.648 25.6055C117.482 26.5169 117.898 27.8092 117.898 29.4824V30.6348H111.17C111.261 31.3249 111.535 31.8783 111.99 32.2949C112.452 32.7116 113.035 32.9199 113.738 32.9199C114.826 32.9199 115.675 32.526 116.287 31.7383L117.674 33.291C117.251 33.89 116.678 34.3587 115.955 34.6973C115.232 35.0293 114.432 35.1953 113.553 35.1953ZM113.23 26.5234C112.671 26.5234 112.215 26.7122 111.863 27.0898C111.518 27.4674 111.297 28.0078 111.199 28.7109H115.125V28.4863C115.112 27.8613 114.943 27.3796 114.617 27.041C114.292 26.696 113.829 26.5234 113.23 26.5234ZM123.533 27.5879L125.311 24.4336H128.328L125.32 29.6094L128.455 35H125.428L123.543 31.6797L121.668 35H118.631L121.766 29.6094L118.768 24.4336H121.795L123.533 27.5879ZM133.064 21.8359V24.4336H134.871V26.5039H133.064V31.7773C133.064 32.168 133.139 32.4479 133.289 32.6172C133.439 32.7865 133.725 32.8711 134.148 32.8711C134.461 32.8711 134.738 32.8483 134.979 32.8027V34.9414C134.425 35.1107 133.855 35.1953 133.27 35.1953C131.29 35.1953 130.281 34.196 130.242 32.1973V26.5039H128.699V24.4336H130.242V21.8359H133.064Z" fill="white"/>
<path d="M160.293 25.293L156 29.586L151.707 25.293L150.293 26.707L156 32.414L161.707 26.707L160.293 25.293Z" fill="white"/>
</svg>
