<svg width="24" height="24" viewBox="0 0 24 24" fill="none" xmlns="http://www.w3.org/2000/svg">
<path d="M5 5.00007V19.0001C5 19.5531 5.447 20.0001 6 20.0001H9V18.0001H7V6.00007H9V4.00007H6C5.447 4.00007 5 4.44707 5 5.00007ZM19.242 4.03007L11.242 2.03007C10.945 1.95507 10.628 2.02207 10.385 2.21207C10.142 2.40207 10 2.69207 10 3.00007V21.0001C10 21.3081 10.142 21.5991 10.385 21.7881C10.563 21.9271 10.779 22.0001 11 22.0001C11.081 22.0001 11.162 21.9901 11.242 21.9701L19.242 19.9701C19.688 19.8581 20 19.4591 20 19.0001V5.00007C20 4.54107 19.688 4.14207 19.242 4.03007ZM15 12.1881C15 12.6471 14.687 13.0461 14.242 13.1581C13.611 13.3161 13 12.8391 13 12.1881V11.8111C13 11.1611 13.611 10.6831 14.242 10.8411C14.688 10.9531 15 11.3531 15 11.8121V12.1881Z" fill="#5B6366"/>
</svg>
