<svg width="24" height="24" viewBox="0 0 24 24" fill="none" xmlns="http://www.w3.org/2000/svg">
<path d="M21.7429 12.3309L12.7429 2.3309C12.3639 1.9089 11.6359 1.9089 11.2569 2.3309L2.25693 12.3309C1.99193 12.6239 1.92593 13.0459 2.08693 13.4069C2.24693 13.7679 2.60493 13.9999 2.99993 13.9999H4.99993V20.9999C4.99993 21.5519 5.44693 21.9999 5.99993 21.9999H8.99993C9.55293 21.9999 9.99993 21.5519 9.99993 20.9999V16.9999H13.9999V20.9999C13.9999 21.5519 14.4469 21.9999 14.9999 21.9999H17.9999C18.5529 21.9999 18.9999 21.5519 18.9999 20.9999V13.9999H20.9999C21.3949 13.9999 21.7529 13.7679 21.9129 13.4069C22.0739 13.0459 22.0079 12.6249 21.7429 12.3309Z" fill="#5B6366"/>
</svg>
