<svg width="24" height="24" viewBox="0 0 24 24" fill="none" xmlns="http://www.w3.org/2000/svg">
<path d="M12 22C17.514 22 22 17.514 22 12C22 6.486 17.514 2 12 2C6.486 2 2 6.486 2 12C2 17.514 6.486 22 12 22ZM15.493 9C16.317 9 16.986 9.669 16.986 10.493C16.986 11.317 16.317 11.986 15.493 11.986C14.669 11.986 14 11.317 14 10.493C14 9.669 14.669 9 15.493 9ZM11.192 15.919C11.721 16.026 12.277 16.026 12.808 15.919C13.061 15.867 13.313 15.788 13.558 15.686C13.792 15.586 14.022 15.462 14.237 15.318C14.445 15.176 14.644 15.012 14.828 14.829C15.011 14.647 15.175 14.448 15.317 14.237L16.975 15.354C16.76 15.673 16.513 15.973 16.241 16.245C15.97 16.516 15.671 16.763 15.356 16.975C15.034 17.193 14.691 17.378 14.335 17.529C13.967 17.683 13.589 17.801 13.207 17.879C12.811 17.959 12.404 18 12 18C11.596 18 11.189 17.959 10.793 17.878C10.41 17.801 10.032 17.683 9.666 17.529C9.309 17.378 8.966 17.192 8.645 16.975C8.329 16.761 8.03 16.515 7.757 16.242C7.486 15.972 7.238 15.673 7.024 15.353L8.682 14.236C8.825 14.447 8.989 14.646 9.17 14.826C9.355 15.012 9.554 15.176 9.764 15.318C9.977 15.462 10.206 15.586 10.443 15.686C10.687 15.788 10.938 15.867 11.192 15.919ZM8.5 9C9.328 9 10 9.672 10 10.5C10 11.328 9.328 12 8.5 12C7.672 12 7 11.328 7 10.5C7 9.672 7.672 9 8.5 9Z" fill="#5B6366"/>
</svg>
